<?xml version="1.0" encoding="UTF-8" standalone="no"?>
<!-- Created with Inkscape (http://www.inkscape.org/) -->

<svg
   version="1.1"
   id="svg2"
   width="56"
   height="82.666664"
   viewBox="0 0 56 82.666664"
   sodipodi:docname="Dark_Mode_Double_Flat.eps"
   xmlns:inkscape="http://www.inkscape.org/namespaces/inkscape"
   xmlns:sodipodi="http://sodipodi.sourceforge.net/DTD/sodipodi-0.dtd"
   xmlns="http://www.w3.org/2000/svg"
   xmlns:svg="http://www.w3.org/2000/svg">
  <defs
     id="defs6" />
  <sodipodi:namedview
     id="namedview4"
     pagecolor="#ffffff"
     bordercolor="#000000"
     borderopacity="0.25"
     inkscape:showpageshadow="2"
     inkscape:pageopacity="0.0"
     inkscape:pagecheckerboard="0"
     inkscape:deskcolor="#d1d1d1" />
  <g
     id="g8"
     inkscape:groupmode="layer"
     inkscape:label="ink_ext_XXXXXX"
     transform="matrix(1.3333333,0,0,-1.3333333,0,82.666667)">
    <g
       id="g10"
       transform="scale(0.1)">
      <path
         d="m 235.059,225.668 1.023,-161.6602 c 13.766,12.75 14.02,16.0625 27.027,27.5391 13.258,15.0431 21.93,22.4371 36.973,40.0311 15.043,17.848 26.262,37.227 31.871,55.332 5.356,18.36 3.313,24.481 0,37.735 -3.058,13.007 -9.687,22.695 -19.121,28.304 -9.437,5.61 -21.164,6.629 -34.168,3.059 -12.496,-4.332 -17.086,-5.863 -30.344,-17.594 -5.609,-5.605 -6.629,-6.883 -13.261,-12.746 z m -32.637,387.828 c 13.004,0.508 18.871,-0.512 31.617,0.508 0.512,-13.766 0.254,-354.68 0,-354.68 22.441,15.301 19.891,15.555 42.328,23.969 22.184,8.414 44.113,11.73 63.492,9.18 19.121,-2.297 35.188,-10.2 46.407,-22.692 11.218,-12.496 24.476,-30.601 24.73,-49.98 0,-19.375 -9.941,-43.856 -23.711,-60.176 C 368.16,137.188 345.723,119.594 319.715,101.488 293.961,83.8945 269.996,65.5391 251.125,48.4531 232.512,33.4102 223.84,24.9961 202.934,6.63672 202.422,23.4648 201.402,42.332 201.656,55.5938 l 0.766,557.9022"
         style="fill:#f4f4f4;fill-opacity:1;fill-rule:evenodd;stroke:none"
         id="path12" />
      <path
         d="m 202.422,613.496 c 13.004,0.508 18.871,-0.512 31.617,0.508 0.512,-13.766 0.254,-354.68 0,-354.68 22.441,15.301 19.891,15.555 42.332,23.969 22.18,8.414 44.109,11.73 63.484,9.18 19.125,-2.297 35.192,-10.2 46.411,-22.692 11.218,-12.496 24.476,-30.601 24.73,-49.98 0,-19.375 -9.941,-43.856 -23.711,-60.176 C 368.16,137.188 345.723,119.594 319.715,101.488 293.961,83.8984 269.996,65.5391 251.125,48.4531 232.512,33.4102 223.84,24.9961 202.934,6.63672 202.422,23.4648 201.402,42.332 201.656,55.5938 l 0.157,113.9372 c -2.266,-3.527 -4.7,-6.859 -7.27,-9.906 C 175.418,137.188 152.98,119.594 126.973,101.488 101.219,83.8984 77.25,65.5391 58.3828,48.4531 39.7656,33.4102 31.0977,24.9961 10.1914,6.63672 9.67969,23.4648 8.66016,42.332 8.91406,55.5938 L 9.67969,613.496 c 13.00391,0.508 18.86721,-0.512 31.61721,0.508 0.5117,-13.766 0.2578,-354.68 0,-354.68 22.4414,15.301 19.8867,15.555 42.3281,23.969 22.184,8.414 44.109,11.73 63.488,9.18 19.125,-2.297 35.188,-10.2 46.407,-22.692 2.757,-3.07 5.64,-6.476 8.418,-10.156 z M 42.3164,225.668 43.3359,64.0078 c 13.7696,12.75 14.0274,16.0625 27.0274,27.5391 13.2617,15.0431 21.9297,22.4371 36.9767,40.0311 15.039,17.848 26.258,37.227 31.871,55.332 5.352,18.36 3.316,24.481 0,37.735 -3.059,13.007 -9.691,22.695 -19.125,28.304 -9.434,5.61 -21.1641,6.633 -34.168,3.059 -12.4922,-4.332 -17.0821,-5.863 -30.3438,-17.59 -5.6094,-5.609 -6.6289,-6.887 -13.2578,-12.75 z m 192.7426,0 1.023,-161.6602 c 13.77,12.75 14.02,16.0625 27.027,27.5391 13.262,15.0431 21.93,22.4371 36.973,40.0311 15.043,17.848 26.262,37.227 31.871,55.332 5.356,18.36 3.313,24.481 0,37.735 -3.062,13.007 -9.687,22.695 -19.125,28.304 -9.43,5.61 -21.16,6.633 -34.164,3.059 -12.496,-4.332 -17.086,-5.863 -30.344,-17.59 -5.609,-5.609 -6.629,-6.887 -13.261,-12.75"
         style="fill:#f4f4f4;fill-opacity:1;fill-rule:evenodd;stroke:none"
         id="path14" />
    </g>
  </g>
</svg>
