<?xml version="1.0" encoding="UTF-8" standalone="no"?>
<!-- Created with Inkscape (http://www.inkscape.org/) -->

<svg
   version="1.1"
   id="svg2"
   width="280"
   height="178.66667"
   viewBox="0 0 280 178.66667"
   sodipodi:docname="Dark_Mode_Grand_Staff.eps"
   xmlns:inkscape="http://www.inkscape.org/namespaces/inkscape"
   xmlns:sodipodi="http://sodipodi.sourceforge.net/DTD/sodipodi-0.dtd"
   xmlns="http://www.w3.org/2000/svg"
   xmlns:svg="http://www.w3.org/2000/svg">
  <defs
     id="defs6" />
  <sodipodi:namedview
     id="namedview4"
     pagecolor="#ffffff"
     bordercolor="#000000"
     borderopacity="0.25"
     inkscape:showpageshadow="2"
     inkscape:pageopacity="0.0"
     inkscape:pagecheckerboard="0"
     inkscape:deskcolor="#d1d1d1" />
  <g
     id="g8"
     inkscape:groupmode="layer"
     inkscape:label="ink_ext_XXXXXX"
     transform="matrix(1.3333333,0,0,-1.3333333,0,178.66667)">
    <g
       id="g10"
       transform="scale(0.1)">
      <path
         d="m 209.16,1333.67 c -1.078,0 -2.164,-0.22 -3.246,-0.65 -10.812,-4.11 -19.68,-10.6 -26.168,-19.47 -6.707,-8.86 -11.898,-19.03 -15.574,-30.28 -3.676,-11.24 -6.274,-22.92 -7.785,-34.82 -1.086,-8.87 -1.735,-17.3 -1.949,-25.31 L 4.54688,1223.11 V 1.08594 L 2092.18,1.08203 V 16.6563 H 13.6289 V 93.875 H 73.7031 C 58.6992,82.8789 47.8047,72.9531 47.8047,70.2969 c 0,-4.7578 8.8672,-1.5156 34.8242,12.3281 7.0469,3.7383 13.8672,7.4883 20.4691,11.25 H 2092.18 V 109.23 H 128.762 c 40.074,25.262 70.394,51.024 91.125,77.434 H 2092.18 V 202.02 H 230.809 c 13.265,20.757 20.738,41.929 22.476,63.589 0.367,4.641 0.457,9.184 0.293,13.629 H 2092.18 v 15.571 H 251.91 c -6.949,38.379 -34.012,66.984 -69.359,77.218 H 2092.18 v 15.356 H 13.6289 V 837.059 H 225.598 c 1.734,-7.571 4.761,-19.032 9.949,-40.231 1.516,-7.57 2.379,-13.195 3.027,-16.656 0.653,-3.676 0.867,-8.652 0.653,-14.922 -0.219,-6.492 -0.868,-12.547 -2.164,-18.602 -1.083,-5.839 -3.028,-10.601 -5.407,-14.277 -3.894,-4.973 -9.086,-9.73 -16.008,-14.055 -6.703,-4.332 -14.058,-7.359 -21.847,-9.086 -7.567,-1.515 -15.137,-1.515 -22.492,0.649 -7.352,1.73 -12.977,6.488 -17.086,13.625 9.949,-0.215 17.734,1.73 23.359,6.055 5.625,4.328 9.301,9.734 11.031,16.007 1.946,6.274 1.946,12.977 0.434,20.332 -1.734,7.137 -4.543,13.196 -8.652,18.383 -4.325,4.977 -9.52,8.438 -16.008,10.383 -6.274,1.731 -13.41,0.652 -21.414,-3.461 -7.137,-3.461 -12.758,-9.082 -17.086,-17.086 -4.324,-7.785 -6.703,-15.574 -6.703,-23.144 0,-11.895 3.675,-22.063 11.031,-30.496 7.351,-8.219 16.223,-14.493 27.035,-18.383 8.871,-3.465 17.734,-5.192 26.82,-5.192 2.594,0 7.571,0.43 14.926,1.512 7.137,1.082 15.141,4.977 23.789,11.465 8.653,6.273 15.789,14.492 20.985,24.656 5.191,10.168 7.351,21.629 6.488,34.172 -0.863,13.195 -2.164,24.012 -3.895,32.231 -1.3,6.921 -4.109,19.683 -7.789,36.121 H 2092.18 v 15.359 H 238.574 c 0.653,0.43 1.301,1.078 2.383,1.512 3.676,1.515 6.703,2.812 8.652,3.89 18.168,10.387 31.579,26.391 40.012,47.805 2.164,8.219 3.676,16.219 4.328,24.008 H 2092.18 v 15.574 H 294.164 c -0.648,8.867 -2.812,17.734 -6.703,26.387 -4.543,10.812 -10.602,20.332 -18.172,28.766 -7.57,8.65 -16.652,15.36 -27.254,20.12 -1.726,0.86 -3.461,1.29 -5.402,1.95 H 2092.18 v 15.35 H 197.914 l -10.168,50.18 c 0,0.22 0.867,1.52 2.598,3.46 1.73,1.95 3.676,3.89 6.054,6.27 l 6.489,6.49 c 2.164,2.17 3.676,3.68 4.328,4.33 1.945,2.16 3.676,4.33 5.191,6.49 H 2092.18 v 15.57 H 222.137 c 1.515,2.38 2.812,4.76 4.328,7.14 8.219,16.22 13.844,33.09 16.656,50.18 1.078,6.49 1.727,13.19 2.375,19.9 H 2092.18 v 15.35 H 246.148 c 0,5.41 0,11.04 -0.214,16.44 -0.438,11.47 -1.95,23.15 -4.329,34.83 -2.597,11.68 -6.492,22.7 -12.113,33.09 -0.867,1.08 -1.945,3.46 -3.679,6.7 -1.512,3.46 -3.458,6.71 -5.622,9.74 -2.164,3.24 -4.109,5.62 -6.054,7.35 -1.949,1.51 -3.68,2.38 -4.977,2.38 z M 316.875,239.652 c 0,-13.191 -10.164,-23.789 -22.711,-23.789 -12.543,0 -22.711,10.598 -22.711,23.789 0,12.981 10.168,23.797 22.711,23.797 12.547,0 22.711,-10.816 22.711,-23.797 z m -1.516,80.461 c 0,-13.191 -10.164,-23.789 -22.711,-23.789 -12.543,0 -22.71,10.598 -22.71,23.789 0,13.196 10.167,23.797 22.71,23.797 12.547,0 22.711,-10.601 22.711,-23.797 z M 95.457,109.23 H 13.6289 v 77.434 H 170.43 C 153.648,159.457 128.543,133.453 95.457,109.23 Z m 83.488,92.79 H 13.6289 v 77.218 h 46.1289 c 13.2188,-25.777 56.2262,-34.07 75.8632,-8.437 2.094,2.699 3.527,5.543 4.367,8.437 h 60.332 c -1.156,-23.886 -8.113,-50.64 -21.375,-77.218 z m 21.289,92.789 h -61.066 c -4.637,11.894 -18.035,21.418 -34.695,20.765 -22.2777,-1.082 -24.4378,-0.433 -24.4378,7.571 0,21.843 38.7148,44.125 69.2108,40.015 30.922,-4.121 48.66,-31.43 50.988,-68.351 z m -144.4059,0 H 13.6289 v 77.218 H 122.875 c -3.812,-1.027 -7.641,-2.246 -11.477,-3.679 -35.4722,-13.41 -55.5894,-39.578 -55.5894,-72.672 0,-0.293 0.0117,-0.578 0.0195,-0.867 z m 121.3199,783.851 8.438,-40.88 h -50.184 c 3.895,4.54 8.008,9.08 12.114,13.41 9.734,9.95 19.683,19.25 29.632,27.47 z M 13.6289,929.633 h 63.8086 c 1.5156,-3.676 3.4609,-7.789 5.4102,-12.113 8.4296,-17.739 19.6793,-32.875 33.5233,-45.418 9.082,-8.223 19.25,-14.711 30.281,-19.684 H 13.6289 Z m 82.625,0 h 44.3441 c 3.461,-12.543 10.379,-23.145 20.976,-31.793 7.574,-6.274 16.223,-10.602 26.172,-12.547 2.379,0 3.461,1.082 2.813,3.027 -0.649,2.164 -2.161,3.032 -4.539,3.032 -10.383,5.621 -17.524,12.757 -21.2,21.625 -2.379,5.625 -3.675,11.031 -4.109,16.656 h 47.371 c 4.106,-20.766 8,-40.664 12.328,-62.508 l 1.727,-8.652 c 0,-0.653 -1.512,-1.516 -4.539,-2.164 -3.246,-0.864 -6.707,-1.516 -10.383,-1.946 -3.895,-0.648 -7.356,-1.297 -10.817,-1.73 -1.73,-0.215 -1.73,0 -2.812,-0.215 h -9.949 c -9.516,0.863 -19.035,3.027 -28.336,6.922 -11.676,4.754 -22.059,11.242 -30.926,19.68 -8.867,8.218 -16.008,17.953 -21.414,29.418 -3.2462,6.703 -5.4102,13.839 -6.7071,21.195 z m 123.2891,0 h 46.937 c 2.379,-13.192 1.079,-26.387 -3.679,-39.149 -5.192,-13.41 -14.926,-22.714 -29.414,-28.336 z m -11.031,53.422 c 15.359,0 28.121,-5.188 38.285,-15.789 6.488,-6.703 11.461,-14.059 14.922,-22.059 h -45.422 z m -10.598,-1.078 c 2.16,-11.68 4.758,-24.875 7.137,-36.77 h -42.61 c 1.946,7.137 5.407,13.844 10.598,20.332 6.707,7.566 14.926,13.191 24.875,16.438 z m -74.625,40.453 h 62.082 c -1.949,-1.3 -4.113,-2.82 -5.195,-3.68 -1.731,-1.3 -3.676,-2.6 -5.625,-3.9 -1.942,-1.51 -3.028,-2.38 -3.457,-2.81 -7.571,-5.41 -14.059,-11.9 -19.469,-19.466 -4.539,-7.136 -8,-14.922 -10.598,-23.574 -2.379,-7.57 -3.242,-15.574 -2.812,-23.793 H 94.957 c 0,13.41 2.3789,26.387 7.141,38.715 4.754,12.547 11.027,24.228 19.031,35.468 0.648,1.09 1.516,1.95 2.16,3.04 z m -109.6601,0 h 65.3242 c 0,-0.22 -0.2187,-0.44 -0.2187,-0.66 -5.6211,-14.49 -8.4336,-29.844 -8.4336,-46.282 v -17.523 c 0,-3.676 0.6484,-7.785 1.9453,-12.758 H 13.6289 Z m 0,92.57 H 144.273 c -9.734,-9.95 -18.82,-20.34 -27.253,-31.15 -11.247,-14.28 -21.1958,-29.63 -30.0669,-46.07 H 13.6289 Z m 0,92.79 H 154.438 c 0.433,-10.82 1.73,-21.41 3.675,-31.8 2.813,-12.76 5.844,-25.95 9.301,-39.36 -2.379,-1.95 -4.754,-4.11 -6.918,-6.06 H 13.6289 Z m 157.2461,0 h 51.48 c -0.433,-1.3 -1.082,-2.38 -1.515,-3.68 -3.457,-7.57 -7.352,-15.14 -11.895,-22.5 -4.543,-7.56 -9.519,-14.48 -14.925,-20.97 -5.407,-6.49 -11.247,-11.25 -17.52,-14.71 -3.461,9.51 -5.625,18.82 -6.488,28.55 -0.864,9.73 -0.864,19.68 0.433,30.28 0,0.87 0.215,1.94 0.43,3.03 z m 43.047,70.29 c 1.941,0 3.891,0 6.055,-0.43 3.894,-0.86 7.136,-3.89 9.515,-8.86 3.461,-5.63 4.758,-12.77 3.895,-20.99 -0.649,-8.44 -2.164,-15.79 -4.543,-22.49 -0.219,-0.65 -0.434,-1.52 -0.649,-2.17 h -54.289 c 0.864,4.11 2.164,8.01 3.457,11.9 3.246,9.73 7.141,18.39 11.684,26.39 1.512,2.38 4.109,5.19 7.785,8.43 3.461,3.03 7.356,5.41 11.25,6.93 1.941,0.64 3.891,1.08 5.84,1.29"
         style="fill:#f4f4f4;fill-opacity:1;fill-rule:evenodd;stroke:none"
         id="path12" />
    </g>
  </g>
</svg>
