<?xml version="1.0" encoding="UTF-8" standalone="no"?>
<svg
   xmlns:dc="http://purl.org/dc/elements/1.1/"
   xmlns:cc="http://creativecommons.org/ns#"
   xmlns:rdf="http://www.w3.org/1999/02/22-rdf-syntax-ns#"
   xmlns:svg="http://www.w3.org/2000/svg"
   xmlns="http://www.w3.org/2000/svg"
   viewBox="0 0 100 62.666668"
   height="62.666668"
   width="100"
   xml:space="preserve"
   id="svg2"
   version="1.1"><metadata
     id="metadata8"><rdf:RDF><cc:Work
         rdf:about=""><dc:format>image/svg+xml</dc:format><dc:type
           rdf:resource="http://purl.org/dc/dcmitype/StillImage" /></cc:Work></rdf:RDF></metadata><defs
     id="defs6" /><g
     transform="matrix(1.3333333,0,0,-1.3333333,0,62.666667)"
     id="g10"><g
       transform="scale(0.1)"
       id="g12"><path
         id="path14"
         style="fill:#f4f4f4;fill-opacity:1;fill-rule:evenodd;stroke:none"
         d="m 374.953,2.35547 c 203.727,0 365.781,101.86353 365.781,231.50753 0,129.645 -162.054,231.508 -365.781,231.508 C 171.223,465.371 4.53906,363.508 4.53906,233.863 4.53906,104.219 171.223,2.35547 374.953,2.35547 Z M 249.938,169.039 C 305.496,67.1758 402.73,16.2461 472.184,57.918 c 69.453,37.039 78.714,148.164 23.152,245.398 -50.934,97.235 -152.793,148.164 -222.25,111.122 -64.82,-37.04 -78.711,-148.165 -23.148,-245.399" /></g></g></svg>