<?xml version="1.0" encoding="UTF-8" standalone="no"?>
<!-- Created with Inkscape (http://www.inkscape.org/) -->

<svg
   version="1.1"
   id="svg2"
   width="152"
   height="229.33333"
   viewBox="0 0 152 229.33333"
   sodipodi:docname="Double flat.eps"
   xmlns:inkscape="http://www.inkscape.org/namespaces/inkscape"
   xmlns:sodipodi="http://sodipodi.sourceforge.net/DTD/sodipodi-0.dtd"
   xmlns="http://www.w3.org/2000/svg"
   xmlns:svg="http://www.w3.org/2000/svg">
  <defs
     id="defs6" />
  <sodipodi:namedview
     id="namedview4"
     pagecolor="#ffffff"
     bordercolor="#000000"
     borderopacity="0.25"
     inkscape:showpageshadow="2"
     inkscape:pageopacity="0.0"
     inkscape:pagecheckerboard="0"
     inkscape:deskcolor="#d1d1d1" />
  <g
     id="g8"
     inkscape:groupmode="layer"
     inkscape:label="ink_ext_XXXXXX"
     transform="matrix(1.3333333,0,0,-1.3333333,0,229.33333)">
    <g
       id="g10"
       transform="scale(0.1)">
      <path
         d="m 639.313,623.125 2.882,-456.48 c 38.879,36 39.598,45.363 76.317,77.757 37.441,42.481 61.922,63.36 104.402,113.043 42.477,50.399 74.156,105.118 89.996,156.239 15.121,51.839 9.36,69.121 0,106.558 -8.64,36.723 -27.359,64.082 -54,79.922 -26.637,15.84 -59.758,18.719 -96.476,8.641 -35.282,-12.242 -48.239,-16.563 -85.68,-49.68 -15.84,-15.84 -18.719,-19.441 -37.441,-36 z M 547.152,1718.24 c 36.723,1.44 53.282,-1.44 89.282,1.44 1.441,-38.88 0.718,-1001.516 0,-1001.516 63.359,43.199 56.16,43.918 119.519,67.68 62.641,23.761 124.559,33.121 179.277,25.918 54,-6.477 99.36,-28.797 131.04,-64.078 31.68,-35.282 69.12,-86.399 69.84,-141.121 0,-54.719 -28.08,-123.84 -66.96,-169.918 -54,-63.36 -117.361,-113.04 -190.798,-164.161 C 805.633,222.805 737.953,170.965 684.672,122.727 632.113,80.2461 607.633,56.4883 548.594,4.64453 547.152,52.168 544.273,105.445 544.992,142.887 l 2.16,1575.353"
         style="fill:#231f20;fill-opacity:1;fill-rule:evenodd;stroke:none"
         id="path12" />
      <path
         d="m 547.152,1718.24 c 36.723,1.44 53.282,-1.44 89.282,1.44 1.441,-38.88 0.718,-1001.516 0,-1001.516 63.359,43.199 56.16,43.918 119.519,67.68 62.641,23.761 124.559,33.121 179.277,25.918 54,-6.477 99.36,-28.797 131.04,-64.078 31.68,-35.282 69.12,-86.399 69.84,-141.121 0,-54.719 -28.08,-123.84 -66.96,-169.918 -54,-63.36 -117.361,-113.04 -190.798,-164.161 C 805.633,222.805 737.953,170.965 684.672,122.727 632.113,80.2461 607.633,56.4883 548.594,4.64453 547.152,52.168 544.273,105.445 544.992,142.887 Z m 92.161,-1095.115 2.882,-456.48 c 38.879,36 39.598,45.363 76.317,77.757 37.441,42.481 61.922,63.36 104.402,113.043 42.477,50.399 74.156,105.118 89.996,156.239 15.121,51.839 9.36,69.121 0,106.558 -8.64,36.723 -27.359,64.082 -54,79.922 -26.637,15.84 -59.758,18.719 -96.476,8.641 -35.282,-12.242 -48.239,-16.563 -85.68,-49.68 -15.84,-15.84 -18.719,-19.441 -37.441,-36"
         style="fill:#0b0c0b;fill-opacity:1;fill-rule:evenodd;stroke:none"
         id="path14" />
      <path
         d="m 2.90234,1718.24 c 36.71876,1.44 53.27736,-1.44 89.27736,1.44 1.4414,-38.88 0.7226,-1001.516 0,-1001.516 63.3633,43.199 56.1603,43.918 119.5233,67.68 62.637,23.761 124.555,33.121 179.277,25.918 54,-6.477 99.36,-28.797 131.04,-64.078 31.679,-35.282 69.121,-86.399 69.839,-141.121 0,-54.719 -28.082,-123.84 -66.961,-169.918 -54,-63.36 -117.359,-113.04 -190.8,-164.161 C 261.383,222.805 193.703,170.965 140.422,122.727 87.8633,80.2461 63.3828,56.4883 4.33984,4.64453 2.90234,52.168 0.0195313,105.445 0.742188,142.887 Z M 95.0625,623.125 97.9414,166.645 c 38.8786,36 39.6016,45.363 76.3206,77.757 37.441,42.481 61.918,63.36 104.398,113.043 42.477,50.399 74.16,105.118 90,156.239 15.117,51.839 9.36,69.121 0,106.558 -8.64,36.723 -27.363,64.082 -54,79.922 -26.64,15.84 -59.758,18.719 -96.48,8.641 -35.278,-12.242 -48.239,-16.563 -85.68,-49.68 -15.84,-15.84 -18.719,-19.441 -37.4375,-36"
         style="fill:#0b0c0b;fill-opacity:1;fill-rule:evenodd;stroke:none"
         id="path16" />
    </g>
  </g>
</svg>
