<?xml version="1.0" encoding="UTF-8" standalone="no"?>
<!-- Created with Inkscape (http://www.inkscape.org/) -->

<svg
   version="1.1"
   id="svg2"
   width="312"
   height="200"
   viewBox="0 0 312 200"
   sodipodi:docname="Elements.eps"
   xmlns:inkscape="http://www.inkscape.org/namespaces/inkscape"
   xmlns:sodipodi="http://sodipodi.sourceforge.net/DTD/sodipodi-0.dtd"
   xmlns="http://www.w3.org/2000/svg"
   xmlns:svg="http://www.w3.org/2000/svg">
  <defs
     id="defs6" />
  <sodipodi:namedview
     id="namedview4"
     pagecolor="#ffffff"
     bordercolor="#000000"
     borderopacity="0.25"
     inkscape:showpageshadow="2"
     inkscape:pageopacity="0.0"
     inkscape:pagecheckerboard="0"
     inkscape:deskcolor="#d1d1d1" />
  <g
     id="g8"
     inkscape:groupmode="layer"
     inkscape:label="ink_ext_XXXXXX"
     transform="matrix(1.3333333,0,0,-1.3333333,0,200)">
    <g
       id="g10"
       transform="scale(0.1)">
      <path
         d="m 232.285,1490.03 c -1.207,0 -2.41,-0.24 -3.613,-0.72 -12.051,-4.58 -21.934,-11.81 -29.16,-21.69 -7.473,-9.88 -13.258,-21.21 -17.356,-33.74 -4.097,-12.53 -6.988,-25.55 -8.676,-38.8 -1.203,-9.88 -1.925,-19.28 -2.167,-28.2 L 4.30469,1366.84 V 5.27734 L 2330.33,5.26953 V 22.6211 H 14.4258 V 108.656 H 81.3594 C 64.6445,96.4063 52.5039,85.3516 52.5039,82.3867 c 0,-5.3008 9.8789,-1.6875 38.8008,13.7383 7.8476,4.164 15.4453,8.344 22.8043,12.531 H 2330.33 v 17.11 H 142.703 c 44.652,28.152 78.434,56.851 101.531,86.277 H 2330.33 v 17.109 H 256.402 c 14.782,23.133 23.106,46.719 25.043,70.852 0.414,5.172 0.508,10.234 0.332,15.184 H 2330.33 v 17.351 H 279.914 c -7.738,42.762 -37.894,74.633 -77.281,86.035 H 2330.33 v 17.11 H 14.4258 V 936.711 H 250.598 c 1.929,-8.438 5.304,-21.211 11.086,-44.828 1.687,-8.434 2.652,-14.699 3.375,-18.555 0.722,-4.098 0.964,-9.64 0.722,-16.629 -0.242,-7.23 -0.965,-13.976 -2.41,-20.726 -1.203,-6.504 -3.371,-11.805 -6.023,-15.907 -4.34,-5.539 -10.121,-10.839 -17.836,-15.664 -7.469,-4.816 -15.664,-8.191 -24.336,-10.121 -8.438,-1.687 -16.875,-1.687 -25.067,0.727 -8.195,1.926 -14.457,7.226 -19.035,15.18 11.082,-0.239 19.758,1.929 26.024,6.746 6.265,4.82 10.363,10.847 12.293,17.836 2.168,6.988 2.168,14.457 0.48,22.652 -1.93,7.953 -5.058,14.703 -9.637,20.484 -4.824,5.543 -10.605,9.399 -17.836,11.567 -6.988,1.929 -14.941,0.722 -23.859,-3.856 -7.953,-3.855 -14.215,-10.121 -19.039,-19.035 -4.816,-8.676 -7.469,-17.355 -7.469,-25.789 0,-13.254 4.098,-24.582 12.293,-33.98 8.192,-9.157 18.071,-16.145 30.121,-20.485 9.879,-3.855 19.762,-5.781 29.883,-5.781 2.891,0 8.434,0.48 16.629,1.687 7.953,1.204 16.867,5.539 26.508,12.774 9.64,6.984 17.594,16.144 23.379,27.472 5.781,11.325 8.191,24.098 7.23,38.075 -0.965,14.699 -2.41,26.75 -4.34,35.91 -1.445,7.711 -4.578,21.93 -8.675,40.246 H 2330.33 V 953.82 H 265.059 c 0.722,0.481 1.445,1.203 2.648,1.688 4.102,1.683 7.473,3.133 9.641,4.336 20.246,11.566 35.187,29.402 44.586,53.266 2.41,9.15 4.097,18.07 4.82,26.75 H 2330.33 v 17.35 H 326.996 c -0.723,9.88 -3.137,19.76 -7.473,29.4 -5.058,12.05 -11.808,22.65 -20.242,32.05 -8.437,9.64 -18.558,17.11 -30.367,22.41 -1.93,0.97 -3.855,1.45 -6.023,2.17 H 2330.33 v 17.11 H 219.754 l -11.328,55.91 c 0,0.24 0.965,1.69 2.89,3.86 1.93,2.17 4.098,4.34 6.75,6.99 l 7.227,7.23 c 2.414,2.41 4.102,4.09 4.824,4.82 2.168,2.41 4.094,4.81 5.781,7.23 H 2330.33 v 17.35 H 246.742 c 1.688,2.65 3.133,5.3 4.821,7.95 9.16,18.08 15.421,36.87 18.558,55.91 1.203,7.23 1.926,14.7 2.649,22.17 h 2057.56 v 17.11 H 273.496 c 0,6.03 0,12.29 -0.242,18.32 -0.484,12.77 -2.168,25.78 -4.824,38.8 -2.891,13.01 -7.227,25.3 -13.492,36.87 -0.965,1.2 -2.172,3.86 -4.098,7.47 -1.688,3.86 -3.856,7.47 -6.266,10.84 -2.41,3.62 -4.578,6.27 -6.75,8.2 -2.168,1.69 -4.094,2.65 -5.539,2.65 z M 352.297,271.086 c 0,-14.703 -11.324,-26.512 -25.301,-26.512 -13.976,0 -25.305,11.809 -25.305,26.512 0,14.457 11.329,26.508 25.305,26.508 13.977,0 25.301,-12.051 25.301,-26.508 z m -1.688,89.648 c 0,-14.699 -11.324,-26.507 -25.304,-26.507 -13.977,0 -25.301,11.808 -25.301,26.507 0,14.704 11.324,26.512 25.301,26.512 13.98,0 25.304,-11.808 25.304,-26.512 z M 105.594,125.766 H 14.4258 v 86.277 H 189.129 c -18.695,-30.316 -46.668,-59.289 -83.535,-86.277 z m 93.027,103.386 H 14.4258 v 86.036 h 51.3945 c 14.7266,-28.715 62.6487,-37.961 84.5277,-9.399 2.328,3.004 3.925,6.176 4.867,9.399 h 67.223 c -1.29,-26.614 -9.047,-56.422 -23.817,-86.036 z m 23.715,103.387 h -68.039 c -5.164,13.25 -20.09,23.867 -38.652,23.133 -24.8247,-1.203 -27.2348,-0.481 -27.2348,8.437 0,24.34 43.1408,49.161 77.1168,44.582 34.453,-4.589 54.215,-35.015 56.809,-76.152 z m -160.8946,0 H 14.4258 v 86.035 H 136.141 c -4.243,-1.144 -8.508,-2.504 -12.786,-4.097 -39.523,-14.942 -61.9331,-44.102 -61.9331,-80.973 0,-0.328 0.0117,-0.645 0.0195,-0.965 z m 135.1756,873.361 9.399,-45.55 h -55.911 c 4.336,5.06 8.918,10.12 13.497,14.94 10.843,11.09 21.929,21.45 33.015,30.61 z M 14.4258,1039.86 h 71.0937 c 1.6875,-4.1 3.8555,-8.68 6.0235,-13.5 9.402,-19.76 21.93,-36.633 37.355,-50.61 10.122,-9.156 21.45,-16.387 33.739,-21.93 H 14.4258 Z m 92.0582,0 h 49.403 c 3.859,-13.98 11.57,-25.79 23.379,-35.43 8.433,-6.989 18.074,-11.809 29.16,-13.981 2.648,0 3.855,1.207 3.133,3.375 -0.723,2.41 -2.411,3.375 -5.063,3.375 -11.566,6.261 -19.519,14.221 -23.617,24.101 -2.649,6.26 -4.098,12.29 -4.578,18.56 h 52.777 c 4.578,-23.14 8.918,-45.313 13.738,-69.653 l 1.926,-9.641 c 0,-0.722 -1.683,-1.687 -5.058,-2.41 -3.618,-0.965 -7.473,-1.687 -11.567,-2.168 -4.34,-0.722 -8.195,-1.445 -12.051,-1.925 -1.929,-0.243 -1.929,0 -3.132,-0.243 h -11.086 c -10.606,0.965 -21.211,3.371 -31.571,7.711 -13.011,5.301 -24.582,12.532 -34.464,21.93 -9.879,9.16 -17.833,19.999 -23.86,32.769 -3.613,7.48 -6.023,15.43 -7.469,23.63 z m 137.368,0 h 52.293 c 2.656,-14.71 1.21,-29.41 -4.094,-43.626 -5.785,-14.941 -16.629,-25.304 -32.774,-31.57 z m -12.289,59.52 c 17.109,0 31.328,-5.78 42.656,-17.59 7.226,-7.47 12.769,-15.66 16.625,-24.58 h -50.61 z m -11.809,-1.2 c 2.406,-13.02 5.301,-27.72 7.953,-40.97 H 180.23 c 2.168,7.95 6.024,15.42 11.809,22.65 7.473,8.43 16.625,14.7 27.715,18.32 z m -83.145,45.06 h 69.164 c -2.168,-1.45 -4.578,-3.13 -5.781,-4.1 -1.929,-1.44 -4.097,-2.89 -6.269,-4.33 -2.168,-1.69 -3.371,-2.65 -3.852,-3.13 -8.437,-6.03 -15.664,-13.26 -21.691,-21.7 -5.063,-7.95 -8.914,-16.62 -11.809,-26.27 -2.652,-8.43 -3.617,-17.35 -3.133,-26.5 h -48.199 c 0,14.94 2.652,29.4 7.953,43.13 5.301,13.98 12.289,27 21.207,39.53 0.723,1.2 1.688,2.17 2.41,3.37 z m -122.1832,0 H 87.207 c 0,-0.24 -0.2422,-0.48 -0.2422,-0.72 -6.2656,-16.15 -9.3984,-33.26 -9.3984,-51.57 v -19.53 c 0,-4.09 0.7227,-8.67 2.168,-14.21 H 14.4258 Z m 0,103.15 H 159.988 c -10.847,-11.09 -20.968,-22.66 -30.367,-34.71 -12.531,-15.9 -23.617,-33.01 -33.4999,-51.33 H 14.4258 Z m 0,103.38 H 171.313 c 0.484,-12.05 1.929,-23.86 4.097,-35.42 3.133,-14.22 6.504,-28.92 10.363,-43.87 -2.652,-2.16 -5.304,-4.57 -7.714,-6.74 H 14.4258 Z m 175.2032,0 h 57.355 c -0.48,-1.45 -1.203,-2.65 -1.687,-4.09 -3.856,-8.44 -8.195,-16.87 -13.254,-25.07 -5.063,-8.43 -10.605,-16.15 -16.629,-23.38 -6.023,-7.22 -12.531,-12.53 -19.519,-16.38 -3.856,10.6 -6.266,20.97 -7.231,31.81 -0.965,10.84 -0.965,21.93 0.484,33.74 0,0.96 0.239,2.17 0.481,3.37 z m 47.957,78.33 c 2.168,0 4.34,0 6.75,-0.49 4.336,-0.96 7.949,-4.34 10.602,-9.88 3.855,-6.27 5.3,-14.21 4.339,-23.37 -0.722,-9.4 -2.41,-17.6 -5.062,-25.07 -0.242,-0.72 -0.485,-1.68 -0.727,-2.41 H 193 c 0.965,4.58 2.41,8.92 3.855,13.26 3.618,10.84 7.958,20.48 13.016,29.4 1.688,2.65 4.582,5.78 8.676,9.4 3.855,3.37 8.191,6.02 12.531,7.71 2.172,0.73 4.34,1.21 6.508,1.45"
         style="fill:#231f20;fill-opacity:1;fill-rule:evenodd;stroke:none"
         id="path12" />
    </g>
  </g>
</svg>
