<?xml version="1.0" encoding="UTF-8" standalone="no"?>
<svg
   xmlns:dc="http://purl.org/dc/elements/1.1/"
   xmlns:cc="http://creativecommons.org/ns#"
   xmlns:rdf="http://www.w3.org/1999/02/22-rdf-syntax-ns#"
   xmlns:svg="http://www.w3.org/2000/svg"
   xmlns="http://www.w3.org/2000/svg"
   viewBox="0 0 742.66669 593.33331"
   height="593.33331"
   width="742.66669"
   xml:space="preserve"
   id="svg2"
   version="1.1"><metadata
     id="metadata8"><rdf:RDF><cc:Work
         rdf:about=""><dc:format>image/svg+xml</dc:format><dc:type
           rdf:resource="http://purl.org/dc/dcmitype/StillImage" /></cc:Work></rdf:RDF></metadata><defs
     id="defs6" /><g
     transform="matrix(1.3333333,0,0,-1.3333333,0,593.33333)"
     id="g10"><g
       transform="scale(0.1)"
       id="g12"><path
         id="path14"
         style="fill:#231f20;fill-opacity:1;fill-rule:evenodd;stroke:none"
         d="m 687.578,4440.15 c -3.598,0 -7.199,-0.72 -10.797,-2.16 -36,-13.68 -65.519,-35.28 -87.121,-64.8 -22.32,-29.52 -39.601,-63.36 -51.84,-100.8 -12.242,-37.44 -20.882,-76.32 -25.922,-115.92 -3.597,-29.52 -5.761,-57.6 -6.476,-84.24 l -498.95716,0.04 v -51.18 l 498.95716,0.02 c 1.437,-36 5.758,-71.28 12.238,-105.84 9.36,-42.48 19.442,-86.4 30.957,-131.04 -7.918,-6.48 -15.84,-13.68 -23.039,-20.16 H 6.46094 v -51.85 l 465.12106,0.01 c -32.402,-33.12 -62.644,-67.68 -90.723,-103.68 -37.441,-47.52 -70.562,-98.64 -100.078,-153.36 L 6.46094,3455.2 v -51.15 l 247.68006,0.02 c 0,-0.72 -0.723,-1.44 -0.723,-2.16 -18.719,-48.24 -28.078,-99.36 -28.078,-154.08 v -58.32 c 0,-12.24 2.16,-25.92 6.48,-42.48 H 6.46484 v -51.84 H 249.102 c 5.039,-12.24 11.519,-25.92 18,-40.32 28.078,-59.04 65.519,-109.44 111.597,-151.2 30.239,-27.36 64.078,-48.96 100.801,-65.52 H 6.46094 v -51.13 l 735.84006,0.01 c 5.758,-25.2 15.84,-63.36 33.121,-133.92 5.039,-25.2 7.918,-43.92 10.078,-55.44 2.16,-12.24 2.879,-28.8 2.16,-49.68 -0.722,-21.6 -2.883,-41.76 -7.199,-61.92 -3.602,-19.44 -10.082,-35.28 -18,-47.52 -12.961,-16.56 -30.242,-32.4 -53.281,-46.8 -22.321,-14.4 -46.801,-24.48 -72.719,-30.24 -25.199,-5.04 -50.402,-5.04 -74.879,2.16 -24.48,5.76 -43.203,21.6 -56.883,45.36 33.121,-0.72 59.039,5.76 77.762,20.16 18.719,14.4 30.957,32.4 36.719,53.28 6.48,20.88 6.48,43.2 1.441,67.68 -5.762,23.76 -15.121,43.92 -28.801,61.2 -14.398,16.56 -31.679,28.08 -53.281,34.56 -20.879,5.76 -44.641,2.16 -71.281,-11.52 -23.758,-11.52 -42.481,-30.24 -56.879,-56.88 -14.399,-25.92 -22.32,-51.84 -22.32,-77.04 0,-39.6 12.238,-73.44 36.718,-101.52 24.481,-27.36 54.004,-48.24 90,-61.2 29.524,-11.52 59.043,-17.28 89.286,-17.28 8.636,0 25.195,1.44 49.675,5.04 23.762,3.6 50.403,16.56 79.203,38.16 28.797,20.88 52.559,48.24 69.836,82.08 17.282,33.84 24.481,72 21.602,113.76 -2.879,43.92 -7.199,79.92 -12.961,107.28 -4.316,23.04 -13.68,65.52 -25.918,120.24 h 4780.08 v 51.12 H 785.5 c 2.16,1.44 4.32,3.6 7.918,5.04 12.242,5.04 22.324,9.36 28.801,12.96 60.48,34.56 105.121,87.84 133.203,159.12 7.199,27.36 12.238,54 14.398,79.92 h 4595.76 v 51.84 H 970.539 c -2.16,29.52 -9.359,59.04 -22.32,87.84 -15.121,36 -35.278,67.68 -60.481,95.76 -25.199,28.8 -55.437,51.12 -90.718,66.96 -5.758,2.88 -11.52,4.32 -18,6.48 h 4786.56 v 51.12 H 650.141 l -33.84,167.04 c 0,0.72 2.879,5.04 8.64,11.52 5.758,6.48 12.239,12.96 20.161,20.88 l 21.597,21.6 c 7.199,7.2 12.239,12.24 14.399,14.4 6.48,7.2 12.242,14.4 17.281,21.6 H 5565.58 v 51.84 H 730.781 c 5.039,7.92 9.36,15.84 14.399,23.76 27.359,54 46.082,110.16 55.441,167.04 3.598,21.6 5.758,43.92 7.918,66.24 H 5565.58 v 51.12 H 810.699 c 0,18 0,36.72 -0.719,54.72 -1.441,38.16 -6.48,77.04 -14.402,115.92 -8.64,38.88 -21.598,75.6 -40.32,110.16 -2.879,3.6 -6.477,11.52 -12.238,22.32 -5.04,11.52 -11.52,22.32 -18.719,32.4 -7.199,10.8 -13.68,18.72 -20.16,24.48 -6.481,5.04 -12.243,7.92 -16.563,7.92 z M 6.46094,1290.14 v -51.12 l 393.88306,0.01 c -12.684,-3.42 -25.43,-7.48 -38.203,-12.24 -118.078,-44.64 -185.039,-131.76 -185.039,-241.923 0,-0.969 0.043,-1.918 0.066,-2.879 L 6.46094,981.984 V 930.152 L 190.246,930.148 c 44.004,-85.796 187.172,-113.41 252.531,-28.082 6.969,8.985 11.743,18.454 14.551,28.082 H 658.16 C 654.313,850.641 631.137,761.578 587.004,673.109 L 6.46094,673.117 V 621.988 H 558.652 C 502.793,531.418 419.223,444.863 309.082,364.227 L 6.46094,364.23 V 313.109 H 236.672 c -49.942,-36.597 -86.211,-69.632 -86.211,-78.48 0,-15.84 29.519,-5.043 115.918,41.039 23.449,12.445 46.16,24.926 68.144,37.441 H 5565.58 v 51.118 H 419.945 c 133.399,84.101 234.332,169.851 303.336,257.761 H 5565.58 v 51.121 H 759.645 c 44.156,69.106 69.027,139.579 74.812,211.68 1.231,15.438 1.52,30.566 0.984,45.359 H 5565.58 v 51.84 H 829.883 C 806.758,1109.75 716.676,1204.96 598.996,1239.03 H 5565.58 v 51.12 z m 0,-1234.0697 L 6.46484,4.23047 5565.58,4.22656 V 56.0664 Z M 1046.14,798.387 c 0,-43.918 -33.84,-79.199 -75.601,-79.199 -41.758,0 -75.598,35.281 -75.598,79.199 0,43.199 33.84,79.199 75.598,79.199 41.761,0 75.601,-36 75.601,-79.199 z m -5.04,267.843 c 0,-43.92 -33.84,-79.203 -75.6,-79.203 -41.762,0 -75.598,35.283 -75.598,79.203 0,43.92 33.836,79.2 75.598,79.2 41.76,0 75.6,-35.28 75.6,-79.2 z M 657.863,981.988 H 454.586 c -15.434,39.592 -60.031,71.302 -115.484,69.122 -74.161,-3.6 -81.364,-1.44 -81.364,25.2 0,72.72 128.883,146.88 230.403,133.2 102.933,-13.72 161.964,-104.62 169.722,-227.522 z M 581.02,3591.27 609.102,3455.19 H 442.059 c 12.961,15.12 26.64,30.24 40.32,44.64 32.398,33.12 65.519,64.08 98.641,91.44 z M 311.738,3095.19 H 459.34 c 11.519,-41.76 34.558,-77.04 69.84,-105.84 25.199,-20.88 54,-35.28 87.121,-41.76 7.918,0 11.519,3.6 9.359,10.08 -2.16,7.2 -7.199,10.08 -15.121,10.08 -34.559,18.72 -58.32,42.48 -70.559,72 -7.921,18.72 -12.242,36.72 -13.679,55.44 H 683.98 c 13.68,-69.12 26.641,-135.36 41.04,-208.08 l 5.761,-28.8 c 0,-2.16 -5.039,-5.04 -15.121,-7.2 -10.801,-2.88 -22.32,-5.04 -34.562,-6.48 -12.957,-2.16 -24.477,-4.32 -35.996,-5.76 -5.762,-0.72 -5.762,0 -9.36,-0.72 h -33.121 c -31.68,2.88 -63.363,10.08 -94.32,23.04 -38.883,15.84 -73.442,37.44 -102.961,65.52 -29.52,27.36 -53.281,59.76 -71.277,97.92 -10.801,22.32 -18.004,46.08 -22.325,70.56 z m 410.403,0 h 156.238 c 7.922,-43.92 3.601,-87.84 -12.242,-130.32 -17.278,-44.64 -49.676,-75.6 -97.918,-94.32 z m -36.719,177.84 c 51.117,0 93.598,-17.28 127.437,-52.56 21.598,-22.32 38.161,-46.8 49.68,-73.44 H 711.34 Z m -35.281,-3.6 c 7.199,-38.88 15.839,-82.8 23.757,-122.4 H 532.059 c 6.48,23.76 18,46.08 35.281,67.68 22.32,25.2 49.68,43.92 82.801,54.72 z m -248.403,134.64 h 206.641 c -6.481,-4.32 -13.68,-9.36 -17.281,-12.24 -5.758,-4.32 -12.239,-8.64 -18.719,-12.96 -6.481,-5.04 -10.078,-7.92 -11.52,-9.36 -25.199,-18 -46.796,-39.6 -64.8,-64.8 -15.118,-23.76 -26.641,-49.68 -35.278,-78.48 -7.922,-25.2 -10.801,-51.84 -9.363,-79.2 H 307.422 c 0,44.64 7.918,87.84 23.758,128.88 15.84,41.76 36.718,80.64 63.359,118.08 2.16,3.6 5.043,6.48 7.199,10.08 z m 158.403,617.04 H 731.5 c -1.441,-4.32 -3.602,-7.92 -5.039,-12.24 -11.52,-25.2 -24.481,-50.4 -39.602,-74.88 -15.121,-25.2 -31.679,-48.24 -49.679,-69.84 -18,-21.6 -37.442,-37.44 -58.321,-48.96 -11.519,31.68 -18.718,62.64 -21.601,95.04 -2.879,32.4 -2.879,65.52 1.441,100.8 0,2.88 0.719,6.48 1.442,10.08 z m 143.277,234 c 6.484,0 12.961,0 20.16,-1.44 12.961,-2.88 23.762,-12.96 31.68,-29.52 11.523,-18.72 15.84,-42.48 12.961,-69.84 -2.16,-28.08 -7.199,-52.56 -15.121,-74.88 -0.719,-2.16 -1.438,-5.04 -2.157,-7.2 H 570.219 c 2.879,13.68 7.203,26.64 11.519,39.6 10.801,32.4 23.762,61.2 38.883,87.84 5.039,7.92 13.68,17.28 25.918,28.08 11.52,10.08 24.481,18 37.441,23.04 6.481,2.16 12.958,3.6 19.438,4.32" /></g></g></svg>