<?xml version="1.0" encoding="UTF-8"?>
<svg version="1.1" xmlns="http://www.w3.org/2000/svg" width="56" height="221">
<path d="M0 0 C3.3 0 6.6 0 10 0 C10.33 21.12 10.66 42.24 11 64 C25.06195394 60.38250167 25.06195394 60.38250167 39.12255859 56.75976562 C40.881136 56.30840321 42.63975917 55.85721901 44.3984375 55.40625 C45.31665283 55.16874023 46.23486816 54.93123047 47.1809082 54.68652344 C48.05368408 54.46319336 48.92645996 54.23986328 49.82568359 54.00976562 C50.58513275 53.81435181 51.34458191 53.61893799 52.12704468 53.41760254 C54 53 54 53 56 53 C56 108.44 56 163.88 56 221 C52.7 221 49.4 221 46 221 C45.67 199.88 45.34 178.76 45 157 C30.93804606 160.61749833 30.93804606 160.61749833 16.87744141 164.24023438 C15.118864 164.69159679 13.36024083 165.14278099 11.6015625 165.59375 C10.68334717 165.83125977 9.76513184 166.06876953 8.8190918 166.31347656 C7.94631592 166.53680664 7.07354004 166.76013672 6.17431641 166.99023438 C5.41486725 167.18564819 4.65541809 167.38106201 3.87295532 167.58239746 C2 168 2 168 0 168 C0 112.56 0 57.12 0 0 Z M34.609375 88.75 C33.67182373 88.98589844 33.67182373 88.98589844 32.71533203 89.2265625 C30.39224636 89.81254579 28.07124262 90.40675795 25.75 91 C20.5525 92.32 15.355 93.64 10 95 C10 107.87 10 120.74 10 134 C14.08375 133.071875 18.1675 132.14375 22.375 131.1875 C23.64134277 130.90156982 24.90768555 130.61563965 26.21240234 130.32104492 C27.24316895 130.08490479 28.27393555 129.84876465 29.3359375 129.60546875 C30.37282715 129.36981201 31.4097168 129.13415527 32.47802734 128.89135742 C37.02492347 127.74060754 41.50755071 126.34773479 46 125 C46 112.46 46 99.92 46 87 C41.94003487 87 38.49868364 87.74799595 34.609375 88.75 Z " fill="#231F20" transform="translate(0,0)"/>
</svg>
